<?xml version="1.0" standalone="no"?>
<!DOCTYPE svg PUBLIC "-//W3C//DTD SVG 20010904//EN"
 "http://www.w3.org/TR/2001/REC-SVG-20010904/DTD/svg10.dtd">
<svg version="1.0" xmlns="http://www.w3.org/2000/svg"
 width="700.000000pt" height="700.000000pt" viewBox="0 0 700.000000 700.000000"
 preserveAspectRatio="xMidYMid meet">
<metadata>
Created by potrace 1.14, written by Peter Selinger 2001-2017
</metadata>
<g transform="translate(0.000000,700.000000) scale(0.100000,-0.100000)"
fill="#000000" stroke="none">
<path d="M890 6988 c-102 -14 -272 -76 -367 -132 -253 -151 -417 -371 -495
-663 l-23 -88 0 -2605 0 -2605 24 -89 c103 -392 376 -665 778 -779 l78 -22
1308 -3 1307 -3 0 351 0 350 400 0 400 0 0 280 0 280 -400 0 -400 0 0 2240 0
2240 400 0 400 0 0 280 0 280 -400 0 -400 0 0 350 0 350 -1272 -1 c-721 -1
-1301 -5 -1338 -11z m1260 -968 l0 -280 -392 0 c-375 0 -395 -1 -426 -20 -18
-11 -41 -34 -52 -52 -19 -31 -20 -51 -20 -425 l0 -393 -281 0 -280 0 3 443 3
442 28 80 c77 218 265 399 477 459 83 23 84 23 528 25 l412 1 0 -280z m1350 0
l0 -280 -375 0 -375 0 0 280 0 280 375 0 375 0 0 -280z m-2240 -2520 l0 -750
-280 0 -280 0 0 750 0 750 280 0 280 0 0 -750z m2 -1749 c3 -386 4 -401 24
-428 46 -62 50 -63 477 -63 l387 0 0 -280 0 -280 -404 0 c-472 0 -510 4 -654
76 -151 74 -274 205 -341 362 -45 108 -51 176 -51 608 l0 404 280 0 279 0 3
-399z m2238 -771 l0 -280 -375 0 -375 0 0 280 0 280 375 0 375 0 0 -280z"/>
<path d="M4940 6020 l0 -280 400 0 400 0 0 -400 0 -400 280 0 280 0 0 423 c0
257 -4 447 -11 483 -17 97 -78 211 -154 287 -76 77 -190 138 -289 156 -36 7
-226 11 -483 11 l-423 0 0 -280z"/>
<path d="M5740 3500 l0 -800 280 0 280 0 0 800 0 800 -280 0 -280 0 0 -800z"/>
<path d="M5740 1660 l0 -400 -400 0 -400 0 0 -281 0 -280 458 3 457 3 66 26
c98 38 154 74 221 142 69 72 131 188 147 281 7 36 11 226 11 483 l0 423 -280
0 -280 0 0 -400z"/>
</g>
</svg>
