<?xml version="1.0" standalone="no"?>
<!DOCTYPE svg PUBLIC "-//W3C//DTD SVG 20010904//EN"
 "http://www.w3.org/TR/2001/REC-SVG-20010904/DTD/svg10.dtd">
<svg version="1.0" xmlns="http://www.w3.org/2000/svg"
 width="700.000000pt" height="700.000000pt" viewBox="0 0 700.000000 700.000000"
 preserveAspectRatio="xMidYMid meet">
<metadata>
Created by potrace 1.14, written by Peter Selinger 2001-2017
</metadata>
<g transform="translate(0.000000,700.000000) scale(0.100000,-0.100000)"
fill="#000000" stroke="none">
<path d="M920 6993 c-137 -15 -313 -81 -446 -168 -218 -141 -375 -364 -445
-630 l-24 -90 0 -2605 0 -2605 23 -88 c78 -293 241 -512 495 -663 100 -59 266
-118 380 -133 52 -7 499 -11 1338 -11 l1259 0 0 350 0 350 385 0 385 0 0 280
0 280 -385 0 -385 0 0 2240 0 2240 385 0 385 0 0 280 0 280 -385 0 -385 0 0
350 0 350 -1272 -2 c-700 0 -1289 -3 -1308 -5z m1250 -972 l0 -280 -413 -3
c-373 -3 -415 -5 -440 -20 -52 -35 -52 -33 -55 -475 l-3 -413 -280 0 -280 0 4
448 c4 499 3 489 77 640 33 66 60 101 131 172 75 75 104 97 182 134 144 70
179 74 660 75 l417 1 0 -279z m1330 -1 l0 -280 -385 0 -385 0 0 280 0 280 385
0 385 0 0 -280z m-2240 -2520 l0 -770 -280 0 -280 0 0 770 0 770 280 0 280 0
0 -770z m2 -1742 c3 -443 3 -441 55 -476 25 -15 67 -17 440 -20 l413 -3 0
-280 0 -279 -409 0 c-478 0 -522 5 -668 76 -78 37 -107 59 -183 134 -75 76
-97 105 -134 183 -71 146 -76 190 -76 668 l0 409 279 0 280 0 3 -412z m2238
-778 l0 -280 -385 0 -385 0 0 280 0 280 385 0 385 0 0 -280z"/>
<path d="M4830 6021 l0 -280 413 -3 c442 -3 440 -3 475 -55 15 -25 17 -67 20
-440 l3 -413 280 0 279 0 0 409 c0 466 -6 522 -69 656 -65 138 -194 269 -329
335 -128 63 -196 70 -659 70 l-413 0 0 -279z"/>
<path d="M5740 3500 l0 -770 280 0 280 0 0 770 0 770 -280 0 -280 0 0 -770z"/>
<path d="M5739 1778 c-1 -425 -4 -456 -52 -492 -28 -20 -39 -21 -443 -24
l-414 -3 0 -280 0 -279 413 0 c481 0 535 7 678 81 123 64 243 188 303 312 71
146 76 190 76 668 l0 409 -280 0 -280 0 -1 -392z"/>
</g>
</svg>
